Bodoni-96-Fatface.ufo
<glyph name="dollar" format="2">
  <advance width="1269"/>
  <unicode hex="0024"/>
  <outline>
    <contour>
      <point x="654" y="1660" type="line"/>
      <point x="658" y="1660" type="line"/>
      <point x="658" y="-160" type="line"/>
      <point x="654" y="-160" type="line"/>
    </contour>
    <contour>
      <point x="516" y="1660" type="line"/>
      <point x="520" y="1660" type="line"/>
      <point x="520" y="-160" type="line"/>
      <point x="516" y="-160" type="line"/>
    </contour>
    <contour>
      <point x="1098" y="1276" type="curve"/>
      <point x="1044" y="1428"/>
      <point x="824" y="1510"/>
      <point x="654" y="1510" type="curve" smooth="yes"/>
      <point x="522" y="1510"/>
      <point x="380" y="1448"/>
      <point x="380" y="1310" type="curve" smooth="yes"/>
      <point x="380" y="960"/>
      <point x="1190" y="1060"/>
      <point x="1190" y="460" type="curve" smooth="yes"/>
      <point x="1190" y="180"/>
      <point x="972" y="-30"/>
      <point x="630" y="-30" type="curve" smooth="yes"/>
      <point x="238" y="-30"/>
      <point x="50" y="160"/>
      <point x="50" y="330" type="curve" smooth="yes"/>
      <point x="50" y="462"/>
      <point x="132" y="554"/>
      <point x="260" y="554" type="curve" smooth="yes"/>
      <point x="360" y="554"/>
      <point x="448" y="470"/>
      <point x="448" y="342" type="curve" smooth="yes"/>
      <point x="448" y="222"/>
      <point x="336" y="172"/>
      <point x="248" y="172" type="curve" smooth="yes"/>
      <point x="156" y="172"/>
      <point x="86" y="220"/>
      <point x="54" y="306" type="curve"/>
      <point x="72" y="144"/>
      <point x="272" y="-22"/>
      <point x="610" y="-22" type="curve" smooth="yes"/>
      <point x="822" y="-22"/>
      <point x="910" y="72"/>
      <point x="910" y="230" type="curve" smooth="yes"/>
      <point x="910" y="620"/>
      <point x="100" y="450"/>
      <point x="100" y="1090" type="curve" smooth="yes"/>
      <point x="100" y="1350"/>
      <point x="372" y="1520"/>
      <point x="614" y="1520" type="curve" smooth="yes"/>
      <point x="850" y="1520"/>
      <point x="1110" y="1412"/>
      <point x="1110" y="1210" type="curve" smooth="yes"/>
      <point x="1110" y="1078"/>
      <point x="1038" y="1006"/>
      <point x="910" y="1006" type="curve" smooth="yes"/>
      <point x="810" y="1006"/>
      <point x="722" y="1066"/>
      <point x="722" y="1188" type="curve" smooth="yes"/>
      <point x="722" y="1302"/>
      <point x="818" y="1368"/>
      <point x="906" y="1368" type="curve" smooth="yes"/>
      <point x="988" y="1368"/>
      <point x="1054" y="1342"/>
    </contour>
  </outline>
</glyph>
<glyph name="ampersand" format="2">
  <advance width="1837"/>
  <unicode hex="0026"/>
  <outline>
    <contour>
      <point x="914" y="999" type="curve"/>
      <point x="913" y="1000" type="line"/>
      <point x="931" y="1018"/>
      <point x="962" y="1040"/>
      <point x="962" y="1290" type="curve" smooth="yes"/>
      <point x="962" y="1424"/>
      <point x="942" y="1516"/>
      <point x="868" y="1516" type="curve" smooth="yes"/>
      <point x="804" y="1516"/>
      <point x="772" y="1426"/>
      <point x="772" y="1340" type="curve" smooth="yes"/>
      <point x="772" y="1250"/>
      <point x="842" y="1108"/>
      <point x="928" y="980" type="curve" smooth="yes"/>
      <point x="1564" y="4" type="line"/>
      <point x="1798" y="4" type="line"/>
      <point x="1798" y="0" type="line"/>
      <point x="1090" y="0" type="line"/>
      <point x="428" y="980" type="line" smooth="yes"/>
      <point x="376" y="1056"/>
      <point x="336" y="1156"/>
      <point x="336" y="1226" type="curve" smooth="yes"/>
      <point x="336" y="1406"/>
      <point x="546" y="1520"/>
      <point x="878" y="1520" type="curve" smooth="yes"/>
      <point x="1192" y="1520"/>
      <point x="1370" y="1434"/>
      <point x="1370" y="1294" type="curve" smooth="yes"/>
      <point x="1370" y="1140"/>
      <point x="1156" y="1053"/>
    </contour>
    <contour>
      <point x="523" y="845" type="curve"/>
      <point x="524" y="843" type="line"/>
      <point x="504" y="830"/>
      <point x="495" y="770"/>
      <point x="495" y="667" type="curve" smooth="yes"/>
      <point x="495" y="355"/>
      <point x="606" y="46"/>
      <point x="858" y="46" type="curve" smooth="yes"/>
      <point x="1152" y="46"/>
      <point x="1470" y="434"/>
      <point x="1512" y="920" type="curve"/>
      <point x="1516" y="920" type="line"/>
      <point x="1474" y="474"/>
      <point x="1204" y="-20"/>
      <point x="598" y="-20" type="curve" smooth="yes"/>
      <point x="232" y="-20"/>
      <point x="75" y="154"/>
      <point x="75" y="360" type="curve" smooth="yes"/>
      <point x="75" y="697"/>
      <point x="426" y="803"/>
    </contour>
    <contour>
      <point x="1248" y="920" type="line"/>
      <point x="1728" y="920" type="line"/>
      <point x="1728" y="916" type="line"/>
      <point x="1248" y="916" type="line"/>
    </contour>
  </outline>
</glyph>
<glyph name="comma" format="2">
  <advance width="669"/>
  <unicode hex="002C"/>
  <outline>
    <contour>
      <point x="80" y="218" type="curve" smooth="yes"/>
      <point x="80" y="344"/>
      <point x="198" y="456"/>
      <point x="334" y="456" type="curve" smooth="yes"/>
      <point x="472" y="456"/>
      <point x="594" y="334"/>
      <point x="594" y="128" type="curve" smooth="yes"/>
      <point x="594" y="-132"/>
      <point x="376" y="-312"/>
      <point x="76" y="-312" type="curve"/>
      <point x="76" y="-308" type="line"/>
      <point x="380" y="-308"/>
      <point x="654" y="-108"/>
      <point x="574" y="244" type="curve"/>
      <point x="570" y="120"/>
      <point x="474" y="-20"/>
      <point x="320" y="-20" type="curve" smooth="yes"/>
      <point x="174" y="-20"/>
      <point x="80" y="92"/>
    </contour>
  </outline>
</glyph>
<glyph name="two" format="2">
  <advance width="1299"/>
  <unicode hex="0032"/>
  <outline>
    <contour>
      <point x="1230" y="0" type="line"/>
      <point x="80" y="0" type="line"/>
      <point x="80" y="270" type="line"/>
      <point x="494" y="530" type="line" smooth="yes"/>
      <point x="664" y="640"/>
      <point x="748" y="772"/>
      <point x="748" y="1020" type="curve" smooth="yes"/>
      <point x="748" y="1288"/>
      <point x="642" y="1474"/>
      <point x="486" y="1474" type="curve" smooth="yes"/>
      <point x="274" y="1474"/>
      <point x="102" y="1298"/>
      <point x="102" y="1100" type="curve"/>
      <point x="134" y="1206"/>
      <point x="224" y="1284"/>
      <point x="338" y="1284" type="curve" smooth="yes"/>
      <point x="496" y="1284"/>
      <point x="596" y="1182"/>
      <point x="596" y="1052" type="curve" smooth="yes"/>
      <point x="596" y="912"/>
      <point x="460" y="814"/>
      <point x="330" y="814" type="curve" smooth="yes"/>
      <point x="200" y="814"/>
      <point x="98" y="914"/>
      <point x="98" y="1098" type="curve" smooth="yes"/>
      <point x="98" y="1332"/>
      <point x="316" y="1520"/>
      <point x="650" y="1520" type="curve" smooth="yes"/>
      <point x="992" y="1520"/>
      <point x="1188" y="1360"/>
      <point x="1188" y="1140" type="curve" smooth="yes"/>
      <point x="1188" y="880"/>
      <point x="888" y="766"/>
      <point x="700" y="650" type="curve" smooth="yes"/>
      <point x="328" y="420" type="line"/>
      <point x="1226" y="420" type="line"/>
      <point x="1226" y="570" type="line"/>
      <point x="1230" y="570" type="line"/>
    </contour>
  </outline>
</glyph>
<glyph name="four" format="2">
  <advance width="2804"/>
  <unicode hex="0034"/>
  <outline>
    <contour>
      <point x="2622" y="8" type="line"/>
      <point x="2622" y="0" type="line"/>
      <point x="1044" y="0" type="line"/>
      <point x="1044" y="8" type="line"/>
      <point x="1434" y="8" type="line"/>
      <point x="1434" y="2678" type="line"/>
      <point x="160" y="884" type="line"/>
      <point x="2764" y="884" type="line"/>
      <point x="2764" y="876" type="line"/>
      <point x="144" y="876" type="line"/>
      <point x="1700" y="3072" type="line"/>
      <point x="2314" y="3072" type="line"/>
      <point x="2314" y="8" type="line"/>
    </contour>
  </outline>
</glyph>
<glyph name="five" format="2">
  <advance width="1139"/>
  <unicode hex="0035"/>
  <outline>
    <contour>
      <point x="1010" y="1080" type="line"/>
      <point x="98" y="1080" type="line"/>
      <point x="98" y="674" type="line"/>
      <point x="94" y="674" type="line"/>
      <point x="94" y="1500" type="line"/>
      <point x="1006" y="1500" type="line"/>
      <point x="1006" y="1610" type="line"/>
      <point x="1010" y="1610" type="line"/>
    </contour>
    <contour>
      <point x="8" y="188" type="curve"/>
      <point x="48" y="80"/>
      <point x="204" y="-8"/>
      <point x="372" y="-8" type="curve" smooth="yes"/>
      <point x="550" y="-8"/>
      <point x="630" y="162"/>
      <point x="630" y="430" type="curve" smooth="yes"/>
      <point x="630" y="738"/>
      <point x="578" y="862"/>
      <point x="420" y="862" type="curve" smooth="yes"/>
      <point x="284" y="862"/>
      <point x="152" y="786"/>
      <point x="100" y="674" type="curve"/>
      <point x="96" y="674" type="line"/>
      <point x="148" y="788"/>
      <point x="282" y="880"/>
      <point x="504" y="880" type="curve" smooth="yes"/>
      <point x="846" y="880"/>
      <point x="1080" y="730"/>
      <point x="1080" y="430" type="curve" smooth="yes"/>
      <point x="1080" y="150"/>
      <point x="794" y="-20"/>
      <point x="432" y="-20" type="curve" smooth="yes"/>
      <point x="208" y="-20"/>
      <point x="-20" y="74"/>
      <point x="-20" y="298" type="curve" smooth="yes"/>
      <point x="-20" y="440"/>
      <point x="84" y="542"/>
      <point x="214" y="542" type="curve" smooth="yes"/>
      <point x="344" y="542"/>
      <point x="448" y="460"/>
      <point x="448" y="320" type="curve" smooth="yes"/>
      <point x="448" y="190"/>
      <point x="332" y="80"/>
      <point x="194" y="80" type="curve" smooth="yes"/>
      <point x="112" y="80"/>
      <point x="48" y="124"/>
    </contour>
  </outline>
</glyph>
<glyph name="seven" format="2">
  <advance width="1149"/>
  <unicode hex="0037"/>
  <outline>
    <contour>
      <point x="256" y="212" type="curve" smooth="yes"/>
      <point x="256" y="370"/>
      <point x="498" y="538"/>
      <point x="652" y="756" type="curve" smooth="yes"/>
      <point x="710" y="838"/>
      <point x="754" y="896"/>
      <point x="862" y="1070" type="curve"/>
      <point x="84" y="1070" type="line"/>
      <point x="84" y="920" type="line"/>
      <point x="80" y="920" type="line"/>
      <point x="80" y="1500" type="line"/>
      <point x="1130" y="1500" type="line"/>
      <point x="1130" y="1500"/>
      <point x="850" y="1024"/>
      <point x="676" y="776" type="curve" smooth="yes"/>
      <point x="570" y="624"/>
      <point x="540" y="592"/>
      <point x="540" y="544" type="curve" smooth="yes"/>
      <point x="540" y="438"/>
      <point x="756" y="408"/>
      <point x="756" y="216" type="curve" smooth="yes"/>
      <point x="756" y="82"/>
      <point x="656" y="-20"/>
      <point x="508" y="-20" type="curve" smooth="yes"/>
      <point x="370" y="-20"/>
      <point x="256" y="54"/>
    </contour>
  </outline>
</glyph>
<glyph name="eight" format="2">
  <advance width="1299"/>
  <unicode hex="0038"/>
  <outline>
    <contour>
      <point x="560" y="1120" type="curve" smooth="yes"/>
      <point x="560" y="852"/>
      <point x="592" y="790"/>
      <point x="650" y="790" type="curve" smooth="yes"/>
      <point x="708" y="790"/>
      <point x="740" y="852"/>
      <point x="740" y="1120" type="curve" smooth="yes"/>
      <point x="740" y="1368"/>
      <point x="708" y="1480"/>
      <point x="650" y="1480" type="curve" smooth="yes"/>
      <point x="592" y="1480"/>
      <point x="560" y="1368"/>
    </contour>
    <contour>
      <point x="120" y="1120" type="curve" smooth="yes"/>
      <point x="120" y="1340"/>
      <point x="308" y="1520"/>
      <point x="650" y="1520" type="curve" smooth="yes"/>
      <point x="992" y="1520"/>
      <point x="1180" y="1340"/>
      <point x="1180" y="1120" type="curve" smooth="yes"/>
      <point x="1180" y="900"/>
      <point x="992" y="760"/>
      <point x="650" y="760" type="curve" smooth="yes"/>
      <point x="308" y="760"/>
      <point x="120" y="900"/>
    </contour>
    <contour>
      <point x="520" y="380" type="curve" smooth="yes"/>
      <point x="520" y="152"/>
      <point x="552" y="20"/>
      <point x="650" y="20" type="curve" smooth="yes"/>
      <point x="748" y="20"/>
      <point x="780" y="152"/>
      <point x="780" y="380" type="curve" smooth="yes"/>
      <point x="780" y="608"/>
      <point x="748" y="750"/>
      <point x="650" y="750" type="curve" smooth="yes"/>
      <point x="552" y="750"/>
      <point x="520" y="608"/>
    </contour>
    <contour>
      <point x="80" y="380" type="curve" smooth="yes"/>
      <point x="80" y="620"/>
      <point x="268" y="780"/>
      <point x="650" y="780" type="curve" smooth="yes"/>
      <point x="1032" y="780"/>
      <point x="1220" y="620"/>
      <point x="1220" y="380" type="curve" smooth="yes"/>
      <point x="1220" y="140"/>
      <point x="1032" y="-20"/>
      <point x="650" y="-20" type="curve" smooth="yes"/>
      <point x="268" y="-20"/>
      <point x="80" y="140"/>
    </contour>
  </outline>
</glyph>
<glyph name="question" format="2">
  <advance width="1239"/>
  <unicode hex="003F"/>
  <outline>
    <contour>
      <point x="512" y="732" type="line"/>
      <point x="666" y="794"/>
      <point x="698" y="934"/>
      <point x="698" y="1120" type="curve" smooth="yes"/>
      <point x="698" y="1308"/>
      <point x="690" y="1504"/>
      <point x="532" y="1504" type="curve" smooth="yes"/>
      <point x="332" y="1504"/>
      <point x="154" y="1338"/>
      <point x="136" y="1212" type="curve"/>
      <point x="152" y="1254"/>
      <point x="232" y="1320"/>
      <point x="334" y="1320" type="curve" smooth="yes"/>
      <point x="452" y="1320"/>
      <point x="548" y="1250"/>
      <point x="548" y="1130" type="curve" smooth="yes"/>
      <point x="548" y="1000"/>
      <point x="464" y="918"/>
      <point x="334" y="918" type="curve" smooth="yes"/>
      <point x="194" y="918"/>
      <point x="120" y="1010"/>
      <point x="120" y="1142" type="curve" smooth="yes"/>
      <point x="120" y="1326"/>
      <point x="308" y="1520"/>
      <point x="612" y="1520" type="curve" smooth="yes"/>
      <point x="934" y="1520"/>
      <point x="1140" y="1360"/>
      <point x="1140" y="1120" type="curve" smooth="yes"/>
      <point x="1140" y="890"/>
      <point x="898" y="748"/>
      <point x="516" y="730" type="curve"/>
      <point x="516" y="558" type="line"/>
      <point x="512" y="558" type="line"/>
    </contour>
    <component base="period" xOffset="258"/>
  </outline>
</glyph>
<glyph name="M" format="2">
  <advance width="1879"/>
  <unicode hex="004D"/>
  <outline>
    <contour>
      <point x="1850" y="1500" type="line"/>
      <point x="1850" y="1496" type="line"/>
      <point x="1710" y="1496" type="line"/>
      <point x="1710" y="0" type="line"/>
      <point x="1280" y="0" type="line"/>
      <point x="1280" y="1500" type="line"/>
    </contour>
    <contour>
      <point x="40" y="4" type="line"/>
      <point x="344" y="4" type="line"/>
      <point x="344" y="0" type="line"/>
      <point x="40" y="0" type="line"/>
    </contour>
    <contour>
      <point x="1120" y="4" type="line"/>
      <point x="1850" y="4" type="line"/>
      <point x="1850" y="0" type="line"/>
      <point x="1120" y="0" type="line"/>
    </contour>
    <contour>
      <point x="960" y="594" type="line"/>
      <point x="1278" y="1500" type="line"/>
      <point x="1282" y="1500" type="line"/>
      <point x="750" y="-20" type="line"/>
      <point x="742" y="-20" type="line"/>
      <point x="186" y="1500" type="line"/>
      <point x="618" y="1500" type="line"/>
    </contour>
    <contour>
      <point x="184" y="1496" type="line"/>
      <point x="30" y="1496" type="line"/>
      <point x="30" y="1500" type="line"/>
      <point x="188" y="1500" type="line"/>
      <point x="188" y="0" type="line"/>
      <point x="184" y="0" type="line"/>
    </contour>
  </outline>
</glyph>
<glyph name="S" format="2">
  <advance width="1269"/>
  <unicode hex="0053"/>
  <outline>
    <contour>
      <point x="1110" y="1030" type="curve"/>
      <point x="1104" y="1030" type="line"/>
      <point x="984" y="1310"/>
      <point x="830" y="1516"/>
      <point x="574" y="1516" type="curve" smooth="yes"/>
      <point x="442" y="1516"/>
      <point x="380" y="1408"/>
      <point x="380" y="1290" type="curve" smooth="yes"/>
      <point x="380" y="980"/>
      <point x="1190" y="1060"/>
      <point x="1190" y="460" type="curve" smooth="yes"/>
      <point x="1190" y="160"/>
      <point x="932" y="-30"/>
      <point x="650" y="-30" type="curve" smooth="yes"/>
      <point x="338" y="-30"/>
      <point x="188" y="270"/>
      <point x="80" y="510" type="curve"/>
      <point x="86" y="510" type="line"/>
      <point x="194" y="270"/>
      <point x="344" y="-26"/>
      <point x="650" y="-26" type="curve" smooth="yes"/>
      <point x="822" y="-26"/>
      <point x="910" y="112"/>
      <point x="910" y="250" type="curve" smooth="yes"/>
      <point x="910" y="600"/>
      <point x="100" y="450"/>
      <point x="100" y="1090" type="curve" smooth="yes"/>
      <point x="100" y="1370"/>
      <point x="332" y="1520"/>
      <point x="574" y="1520" type="curve" smooth="yes"/>
      <point x="830" y="1520"/>
      <point x="990" y="1312"/>
    </contour>
    <contour>
      <point x="1106" y="1520" type="line"/>
      <point x="1110" y="1520" type="line"/>
      <point x="1110" y="1030" type="line"/>
      <point x="1032" y="1206"/>
      <point x="964" y="1316"/>
      <point x="848" y="1420" type="curve"/>
    </contour>
    <contour>
      <point x="84" y="-20" type="line"/>
      <point x="80" y="-20" type="line"/>
      <point x="80" y="510" type="line"/>
      <point x="176" y="304"/>
      <point x="252" y="180"/>
      <point x="354" y="88" type="curve"/>
    </contour>
  </outline>
</glyph>
<glyph name="U" format="2">
  <advance width="3072"/>
  <unicode hex="0055"/>
  <outline>
    <contour>
      <point x="2212" y="3072" type="line"/>
      <point x="3010" y="3072" type="line"/>
      <point x="3010" y="3064" type="line"/>
      <point x="2212" y="3064" type="line"/>
    </contour>
    <contour>
      <point x="62" y="3072" type="line"/>
      <point x="1720" y="3072" type="line"/>
      <point x="1720" y="3064" type="line"/>
      <point x="62" y="3064" type="line"/>
    </contour>
    <contour>
      <point x="2596" y="3072" type="line"/>
      <point x="2606" y="3072" type="line"/>
      <point x="2606" y="942" type="line" smooth="yes"/>
      <point x="2606" y="266"/>
      <point x="2306" y="-62"/>
      <point x="1618" y="-62" type="curve" smooth="yes"/>
      <point x="786" y="-62"/>
      <point x="430" y="234"/>
      <point x="430" y="942" type="curve" smooth="yes"/>
      <point x="430" y="3072" type="line"/>
      <point x="1310" y="3072" type="line"/>
      <point x="1310" y="984" type="line" smooth="yes"/>
      <point x="1310" y="444"/>
      <point x="1378" y="-12"/>
      <point x="1844" y="-12" type="curve" smooth="yes"/>
      <point x="2270" y="-12"/>
      <point x="2596" y="266"/>
      <point x="2596" y="942" type="curve" smooth="yes"/>
    </contour>
  </outline>
</glyph>
<glyph name="bracketleft" format="2">
  <advance width="1576"/>
  <unicode hex="005B"/>
  <outline>
    <contour>
      <point x="1454" y="-614" type="line"/>
      <point x="226" y="-614" type="line"/>
      <point x="226" y="-606" type="line"/>
      <point x="1454" y="-606" type="line"/>
    </contour>
    <contour>
      <point x="1454" y="3186" type="line"/>
      <point x="226" y="3186" type="line"/>
      <point x="226" y="3194" type="line"/>
      <point x="1454" y="3194" type="line"/>
    </contour>
    <contour>
      <point x="1086" y="3194" type="line"/>
      <point x="1086" y="-614" type="line"/>
      <point x="226" y="-614" type="line"/>
      <point x="226" y="3194" type="line"/>
    </contour>
  </outline>
</glyph>
<glyph name="a" format="2">
  <advance width="1261"/>
  <unicode hex="0061"/>
  <outline>
    <contour>
      <point x="1262" y="126" type="line"/>
      <point x="1216" y="26"/>
      <point x="1092" y="-20"/>
      <point x="946" y="-20" type="curve" smooth="yes"/>
      <point x="792" y="-20"/>
      <point x="662" y="28"/>
      <point x="662" y="166" type="curve" smooth="yes"/>
      <point x="662" y="610" type="line" smooth="yes"/>
      <point x="662" y="784"/>
      <point x="600" y="928"/>
      <point x="460" y="928" type="curve" smooth="yes"/>
      <point x="356" y="928"/>
      <point x="254" y="882"/>
      <point x="218" y="854" type="curve"/>
      <point x="392" y="934"/>
      <point x="552" y="840"/>
      <point x="552" y="716" type="curve" smooth="yes"/>
      <point x="552" y="616"/>
      <point x="444" y="542"/>
      <point x="334" y="542" type="curve" smooth="yes"/>
      <point x="214" y="542"/>
      <point x="130" y="620"/>
      <point x="130" y="712" type="curve" smooth="yes"/>
      <point x="130" y="846"/>
      <point x="304" y="936"/>
      <point x="526" y="936" type="curve" smooth="yes"/>
      <point x="886" y="936"/>
      <point x="1042" y="812"/>
      <point x="1042" y="610" type="curve" smooth="yes"/>
      <point x="1042" y="92" type="line" smooth="yes"/>
      <point x="1042" y="52"/>
      <point x="1068" y="22"/>
      <point x="1116" y="22" type="curve" smooth="yes"/>
      <point x="1144" y="22"/>
      <point x="1214" y="42"/>
      <point x="1258" y="126" type="curve"/>
    </contour>
    <contour>
      <point x="498" y="504" type="curve" smooth="yes"/>
      <point x="766" y="504" type="line"/>
      <point x="766" y="500" type="line"/>
      <point x="638" y="500" type="line" smooth="yes"/>
      <point x="546" y="500"/>
      <point x="464" y="390"/>
      <point x="464" y="266" type="curve" smooth="yes"/>
      <point x="464" y="152"/>
      <point x="502" y="112"/>
      <point x="552" y="112" type="curve" smooth="yes"/>
      <point x="596" y="112"/>
      <point x="662" y="160"/>
      <point x="662" y="362" type="curve"/>
      <point x="666" y="362" type="line"/>
      <point x="666" y="114"/>
      <point x="552" y="-20"/>
      <point x="330" y="-20" type="curve" smooth="yes"/>
      <point x="172" y="-20"/>
      <point x="60" y="78"/>
      <point x="60" y="226" type="curve" smooth="yes"/>
      <point x="60" y="394"/>
      <point x="214" y="504"/>
    </contour>
  </outline>
</glyph>
<glyph name="b" format="2">
  <advance width="2714"/>
  <unicode hex="0062"/>
  <outline>
    <contour>
      <point x="1098" y="942" type="curve" smooth="yes"/>
      <point x="1098" y="1564"/>
      <point x="1318" y="1922"/>
      <point x="1744" y="1922" type="curve" smooth="yes"/>
      <point x="2190" y="1922"/>
      <point x="2614" y="1556"/>
      <point x="2614" y="942" type="curve" smooth="yes"/>
      <point x="2614" y="328"/>
      <point x="2190" y="-40"/>
      <point x="1744" y="-40" type="curve" smooth="yes"/>
      <point x="1322" y="-40"/>
      <point x="1098" y="320"/>
    </contour>
    <contour>
      <point x="1106" y="942" type="curve" smooth="yes"/>
      <point x="1106" y="312"/>
      <point x="1356" y="24"/>
      <point x="1560" y="24" type="curve" smooth="yes"/>
      <point x="1700" y="24"/>
      <point x="1732" y="312"/>
      <point x="1732" y="942" type="curve" smooth="yes"/>
      <point x="1732" y="1572"/>
      <point x="1700" y="1856"/>
      <point x="1560" y="1856" type="curve" smooth="yes"/>
      <point x="1356" y="1856"/>
      <point x="1106" y="1572"/>
    </contour>
    <contour>
      <point x="328" y="3064" type="line"/>
      <point x="40" y="3064" type="line"/>
      <point x="40" y="3072" type="line"/>
      <point x="1106" y="3072" type="line"/>
      <point x="1106" y="0" type="line"/>
      <point x="40" y="0" type="line"/>
      <point x="40" y="8" type="line"/>
      <point x="328" y="8" type="line"/>
    </contour>
  </outline>
</glyph>
<glyph name="c" format="2">
  <advance width="1079"/>
  <unicode hex="0063"/>
  <outline>
    <contour>
      <point x="964" y="788" type="curve"/>
      <point x="920" y="854"/>
      <point x="782" y="932"/>
      <point x="646" y="932" type="curve" smooth="yes"/>
      <point x="508" y="932"/>
      <point x="500" y="648"/>
      <point x="500" y="460" type="curve" smooth="yes"/>
      <point x="500" y="232"/>
      <point x="544" y="0"/>
      <point x="662" y="0" type="curve" smooth="yes"/>
      <point x="822" y="0"/>
      <point x="952" y="114"/>
      <point x="1002" y="286" type="curve"/>
      <point x="1006" y="286" type="line"/>
      <point x="954" y="112"/>
      <point x="828" y="-20"/>
      <point x="586" y="-20" type="curve" smooth="yes"/>
      <point x="264" y="-20"/>
      <point x="50" y="120"/>
      <point x="50" y="460" type="curve" smooth="yes"/>
      <point x="50" y="760"/>
      <point x="236" y="940"/>
      <point x="598" y="940" type="curve" smooth="yes"/>
      <point x="822" y="940"/>
      <point x="1020" y="816"/>
      <point x="1020" y="652" type="curve" smooth="yes"/>
      <point x="1020" y="530"/>
      <point x="936" y="458"/>
      <point x="816" y="458" type="curve" smooth="yes"/>
      <point x="706" y="458"/>
      <point x="602" y="510"/>
      <point x="602" y="660" type="curve" smooth="yes"/>
      <point x="602" y="790"/>
      <point x="718" y="850"/>
      <point x="796" y="850" type="curve" smooth="yes"/>
      <point x="880" y="850"/>
      <point x="924" y="828"/>
    </contour>
  </outline>
</glyph>
<glyph name="d" format="2">
  <advance width="1325"/>
  <unicode hex="0064"/>
  <outline>
    <contour>
      <point x="790" y="458" type="curve" smooth="yes"/>
      <point x="790" y="154"/>
      <point x="682" y="-20"/>
      <point x="474" y="-20" type="curve" smooth="yes"/>
      <point x="256" y="-20"/>
      <point x="50" y="158"/>
      <point x="50" y="458" type="curve" smooth="yes"/>
      <point x="50" y="758"/>
      <point x="256" y="938"/>
      <point x="474" y="938" type="curve" smooth="yes"/>
      <point x="680" y="938"/>
      <point x="790" y="762"/>
    </contour>
    <contour>
      <point x="786" y="458" type="curve" smooth="yes"/>
      <point x="786" y="766"/>
      <point x="664" y="906"/>
      <point x="564" y="906" type="curve" smooth="yes"/>
      <point x="496" y="906"/>
      <point x="480" y="766"/>
      <point x="480" y="458" type="curve" smooth="yes"/>
      <point x="480" y="150"/>
      <point x="496" y="12"/>
      <point x="564" y="12" type="curve" smooth="yes"/>
      <point x="664" y="12"/>
      <point x="786" y="150"/>
    </contour>
    <contour>
      <point x="1306" y="4" type="line"/>
      <point x="1306" y="0" type="line"/>
      <point x="786" y="0" type="line"/>
      <point x="786" y="1496" type="line"/>
      <point x="646" y="1496" type="line"/>
      <point x="646" y="1500" type="line"/>
      <point x="1166" y="1500" type="line"/>
      <point x="1166" y="4" type="line"/>
    </contour>
  </outline>
</glyph>
<glyph name="e" format="2">
  <advance width="1075"/>
  <unicode hex="0065"/>
  <outline>
    <contour>
      <point x="184" y="520" type="line"/>
      <point x="184" y="524" type="line"/>
      <point x="642" y="524" type="line"/>
      <point x="640" y="720"/>
      <point x="638" y="936"/>
      <point x="560" y="936" type="curve" smooth="yes"/>
      <point x="482" y="936"/>
      <point x="460" y="728"/>
      <point x="460" y="500" type="curve" smooth="yes"/>
      <point x="460" y="212"/>
      <point x="492" y="0"/>
      <point x="650" y="0" type="curve" smooth="yes"/>
      <point x="826" y="0"/>
      <point x="972" y="116"/>
      <point x="1022" y="286" type="curve"/>
      <point x="1026" y="286" type="line"/>
      <point x="974" y="112"/>
      <point x="828" y="-20"/>
      <point x="566" y="-20" type="curve" smooth="yes"/>
      <point x="264" y="-20"/>
      <point x="50" y="140"/>
      <point x="50" y="460" type="curve" smooth="yes"/>
      <point x="50" y="780"/>
      <point x="258" y="940"/>
      <point x="560" y="940" type="curve" smooth="yes"/>
      <point x="858" y="940"/>
      <point x="1024" y="738"/>
      <point x="1024" y="520" type="curve"/>
    </contour>
  </outline>
</glyph>
<glyph name="f" format="2">
  <advance width="839"/>
  <unicode hex="0066"/>
  <outline>
    <contour>
      <point x="10" y="4" type="line"/>
      <point x="790" y="4" type="line"/>
      <point x="790" y="0" type="line"/>
      <point x="10" y="0" type="line"/>
    </contour>
    <contour>
      <point x="10" y="920" type="line"/>
      <point x="830" y="920" type="line"/>
      <point x="830" y="916" type="line"/>
      <point x="10" y="916" type="line"/>
    </contour>
    <contour>
      <point x="1042" y="1364" type="curve"/>
      <point x="1014" y="1412"/>
      <point x="938" y="1516"/>
      <point x="764" y="1516" type="curve" smooth="yes"/>
      <point x="604" y="1516"/>
      <point x="550" y="1334"/>
      <point x="550" y="1080" type="curve" smooth="yes"/>
      <point x="550" y="0" type="line"/>
      <point x="190" y="0" type="line"/>
      <point x="190" y="1024" type="line" smooth="yes"/>
      <point x="190" y="1326"/>
      <point x="444" y="1520"/>
      <point x="764" y="1520" type="curve" smooth="yes"/>
      <point x="946" y="1520"/>
      <point x="1070" y="1396"/>
      <point x="1070" y="1262" type="curve" smooth="yes"/>
      <point x="1070" y="1140"/>
      <point x="996" y="1058"/>
      <point x="876" y="1058" type="curve" smooth="yes"/>
      <point x="766" y="1058"/>
      <point x="664" y="1126"/>
      <point x="664" y="1246" type="curve" smooth="yes"/>
      <point x="664" y="1360"/>
      <point x="758" y="1444"/>
      <point x="860" y="1444" type="curve" smooth="yes"/>
      <point x="942" y="1444"/>
      <point x="996" y="1410"/>
    </contour>
  </outline>
</glyph>
<glyph name="g" format="2">
  <advance width="1333"/>
  <unicode hex="0067"/>
  <outline>
    <contour>
      <point x="84" y="108" type="curve" smooth="yes"/>
      <point x="84" y="256"/>
      <point x="338" y="324"/>
      <point x="528" y="324" type="curve"/>
      <point x="528" y="320" type="line"/>
      <point x="442" y="320"/>
      <point x="300" y="306"/>
      <point x="300" y="246" type="curve" smooth="yes"/>
      <point x="300" y="202"/>
      <point x="404" y="198"/>
      <point x="514" y="198" type="curve" smooth="yes"/>
      <point x="584" y="198"/>
      <point x="660" y="200"/>
      <point x="716" y="200" type="curve" smooth="yes"/>
      <point x="866" y="200"/>
      <point x="1070" y="108"/>
      <point x="1070" y="-164" type="curve" smooth="yes"/>
      <point x="1070" y="-406"/>
      <point x="870" y="-520"/>
      <point x="550" y="-520" type="curve" smooth="yes"/>
      <point x="304" y="-520"/>
      <point x="20" y="-460"/>
      <point x="20" y="-290" type="curve" smooth="yes"/>
      <point x="20" y="-128"/>
      <point x="260" y="-112"/>
      <point x="350" y="-112" type="curve" smooth="yes"/>
      <point x="370" y="-112" type="line"/>
      <point x="320" y="-138"/>
      <point x="310" y="-220"/>
      <point x="310" y="-244" type="curve" smooth="yes"/>
      <point x="310" y="-420"/>
      <point x="412" y="-514"/>
      <point x="564" y="-514" type="curve" smooth="yes"/>
      <point x="738" y="-514"/>
      <point x="1000" y="-472"/>
      <point x="1000" y="-284" type="curve" smooth="yes"/>
      <point x="1000" y="-176"/>
      <point x="840" y="-118"/>
      <point x="710" y="-118" type="curve" smooth="yes"/>
      <point x="648" y="-118"/>
      <point x="526" y="-118"/>
      <point x="482" y="-118" type="curve" smooth="yes"/>
      <point x="302" y="-118"/>
      <point x="84" y="-76"/>
    </contour>
    <contour>
      <point x="460" y="630" type="curve" smooth="yes"/>
      <point x="460" y="442"/>
      <point x="470" y="324"/>
      <point x="528" y="324" type="curve" smooth="yes"/>
      <point x="566" y="324"/>
      <point x="596" y="442"/>
      <point x="596" y="630" type="curve" smooth="yes"/>
      <point x="596" y="818"/>
      <point x="566" y="936"/>
      <point x="528" y="936" type="curve" smooth="yes"/>
      <point x="490" y="936"/>
      <point x="460" y="818"/>
    </contour>
    <contour>
      <point x="70" y="630" type="curve" smooth="yes"/>
      <point x="70" y="850"/>
      <point x="306" y="940"/>
      <point x="528" y="940" type="curve" smooth="yes"/>
      <point x="750" y="940"/>
      <point x="986" y="850"/>
      <point x="986" y="630" type="curve" smooth="yes"/>
      <point x="986" y="410"/>
      <point x="750" y="320"/>
      <point x="528" y="320" type="curve" smooth="yes"/>
      <point x="306" y="320"/>
      <point x="70" y="410"/>
    </contour>
    <contour>
      <point x="1316" y="770" type="curve"/>
      <point x="1300" y="838"/>
      <point x="1236" y="926"/>
      <point x="1096" y="926" type="curve" smooth="yes"/>
      <point x="976" y="926"/>
      <point x="860" y="868"/>
      <point x="820" y="694" type="curve"/>
      <point x="816" y="694" type="line"/>
      <point x="856" y="876"/>
      <point x="976" y="930"/>
      <point x="1096" y="930" type="curve" smooth="yes"/>
      <point x="1258" y="930"/>
      <point x="1324" y="814"/>
      <point x="1324" y="738" type="curve" smooth="yes"/>
      <point x="1324" y="608"/>
      <point x="1242" y="568"/>
      <point x="1172" y="568" type="curve" smooth="yes"/>
      <point x="1102" y="568"/>
      <point x="1022" y="612"/>
      <point x="1022" y="718" type="curve" smooth="yes"/>
      <point x="1022" y="794"/>
      <point x="1082" y="862"/>
      <point x="1168" y="862" type="curve" smooth="yes"/>
      <point x="1240" y="862"/>
      <point x="1302" y="814"/>
    </contour>
  </outline>
</glyph>
<glyph name="h" format="2">
  <advance width="1309"/>
  <unicode hex="0068"/>
  <outline>
    <contour>
      <point x="770" y="656" type="line" smooth="yes"/>
      <point x="770" y="824"/>
      <point x="754" y="844"/>
      <point x="698" y="844" type="curve" smooth="yes"/>
      <point x="586" y="844"/>
      <point x="540" y="628"/>
      <point x="540" y="446" type="curve"/>
      <point x="536" y="446" type="line"/>
      <point x="536" y="652"/>
      <point x="580" y="940"/>
      <point x="866" y="940" type="curve" smooth="yes"/>
      <point x="1080" y="940"/>
      <point x="1150" y="812"/>
      <point x="1150" y="638" type="curve" smooth="yes"/>
      <point x="1150" y="0" type="line"/>
      <point x="770" y="0" type="line"/>
    </contour>
    <contour>
      <point x="690" y="4" type="line"/>
      <point x="1290" y="4" type="line"/>
      <point x="1290" y="0" type="line"/>
      <point x="690" y="0" type="line"/>
    </contour>
    <contour>
      <point x="20" y="4" type="line"/>
      <point x="620" y="4" type="line"/>
      <point x="620" y="0" type="line"/>
      <point x="20" y="0" type="line"/>
    </contour>
    <contour>
      <point x="160" y="1496" type="line"/>
      <point x="20" y="1496" type="line"/>
      <point x="20" y="1500" type="line"/>
      <point x="540" y="1500" type="line"/>
      <point x="540" y="0" type="line"/>
      <point x="160" y="0" type="line"/>
    </contour>
  </outline>
</glyph>
<glyph name="i" format="2">
  <advance width="689"/>
  <unicode hex="0069"/>
  <outline>
    <contour>
      <point x="30" y="4" type="line"/>
      <point x="690" y="4" type="line"/>
      <point x="690" y="0" type="line"/>
      <point x="30" y="0" type="line"/>
    </contour>
    <contour>
      <point x="120" y="1300" type="curve" smooth="yes"/>
      <point x="120" y="1426"/>
      <point x="214" y="1520"/>
      <point x="340" y="1520" type="curve" smooth="yes"/>
      <point x="466" y="1520"/>
      <point x="560" y="1426"/>
      <point x="560" y="1300" type="curve" smooth="yes"/>
      <point x="560" y="1174"/>
      <point x="466" y="1080"/>
      <point x="340" y="1080" type="curve" smooth="yes"/>
      <point x="214" y="1080"/>
      <point x="120" y="1174"/>
    </contour>
    <contour>
      <point x="170" y="916" type="line"/>
      <point x="30" y="916" type="line"/>
      <point x="30" y="920" type="line"/>
      <point x="550" y="920" type="line"/>
      <point x="550" y="0" type="line"/>
      <point x="170" y="0" type="line"/>
    </contour>
  </outline>
</glyph>
<glyph name="j" format="2">
  <advance width="713"/>
  <unicode hex="006A"/>
  <outline>
    <contour>
      <point x="154" y="1300" type="curve" smooth="yes"/>
      <point x="154" y="1426"/>
      <point x="248" y="1520"/>
      <point x="374" y="1520" type="curve" smooth="yes"/>
      <point x="500" y="1520"/>
      <point x="594" y="1426"/>
      <point x="594" y="1300" type="curve" smooth="yes"/>
      <point x="594" y="1174"/>
      <point x="500" y="1080"/>
      <point x="374" y="1080" type="curve" smooth="yes"/>
      <point x="248" y="1080"/>
      <point x="154" y="1174"/>
    </contour>
    <contour>
      <point x="580" y="920" type="line"/>
      <point x="580" y="-24" type="line" smooth="yes"/>
      <point x="580" y="-286"/>
      <point x="326" y="-520"/>
      <point x="26" y="-520" type="curve" smooth="yes"/>
      <point x="-176" y="-520"/>
      <point x="-340" y="-410"/>
      <point x="-340" y="-260" type="curve" smooth="yes"/>
      <point x="-340" y="-140"/>
      <point x="-240" y="-58"/>
      <point x="-126" y="-58" type="curve" smooth="yes"/>
      <point x="-16" y="-58"/>
      <point x="86" y="-126"/>
      <point x="86" y="-246" type="curve" smooth="yes"/>
      <point x="86" y="-356"/>
      <point x="8" y="-438"/>
      <point x="-130" y="-438" type="curve" smooth="yes"/>
      <point x="-256" y="-438"/>
      <point x="-324" y="-366"/>
      <point x="-336" y="-286" type="curve"/>
      <point x="-328" y="-404"/>
      <point x="-182" y="-510"/>
      <point x="-14" y="-510" type="curve" smooth="yes"/>
      <point x="226" y="-510"/>
      <point x="190" y="-208"/>
      <point x="190" y="46" type="curve" smooth="yes"/>
      <point x="200" y="916" type="line"/>
      <point x="20" y="916" type="line"/>
      <point x="20" y="920" type="line"/>
    </contour>
  </outline>
</glyph>
<glyph name="m" format="2">
  <advance width="3768"/>
  <unicode hex="006D"/>
  <outline>
    <contour>
      <point x="2274" y="1306" type="curve" smooth="yes"/>
      <point x="2274" y="0" type="line"/>
      <point x="1496" y="0" type="line"/>
      <point x="1496" y="1344" type="line" smooth="yes"/>
      <point x="1496" y="1688"/>
      <point x="1430" y="1728"/>
      <point x="1356" y="1728" type="curve" smooth="yes"/>
      <point x="1204" y="1728"/>
      <point x="1106" y="1348"/>
      <point x="1106" y="914" type="curve"/>
      <point x="1098" y="914" type="line"/>
      <point x="1098" y="1336"/>
      <point x="1146" y="1926"/>
      <point x="1732" y="1926" type="curve" smooth="yes"/>
      <point x="2130" y="1926"/>
      <point x="2274" y="1662"/>
    </contour>
    <contour>
      <point x="40" y="8" type="line"/>
      <point x="1250" y="8" type="line"/>
      <point x="1250" y="0" type="line"/>
      <point x="40" y="0" type="line"/>
    </contour>
    <contour>
      <point x="1352" y="8" type="line"/>
      <point x="2416" y="8" type="line"/>
      <point x="2416" y="0" type="line"/>
      <point x="1352" y="0" type="line"/>
    </contour>
    <contour>
      <point x="2520" y="8" type="line"/>
      <point x="3728" y="8" type="line"/>
      <point x="3728" y="0" type="line"/>
      <point x="2520" y="0" type="line"/>
    </contour>
    <contour>
      <point x="328" y="1876" type="line"/>
      <point x="40" y="1876" type="line"/>
      <point x="40" y="1884" type="line"/>
      <point x="1106" y="1884" type="line"/>
      <point x="1106" y="0" type="line"/>
      <point x="328" y="0" type="line"/>
    </contour>
    <contour>
      <point x="3440" y="1306" type="curve" smooth="yes"/>
      <point x="3440" y="0" type="line"/>
      <point x="2662" y="0" type="line"/>
      <point x="2662" y="1344" type="line" smooth="yes"/>
      <point x="2662" y="1688"/>
      <point x="2598" y="1728"/>
      <point x="2524" y="1728" type="curve" smooth="yes"/>
      <point x="2372" y="1728"/>
      <point x="2274" y="1348"/>
      <point x="2274" y="914" type="curve"/>
      <point x="2266" y="914" type="line"/>
      <point x="2266" y="1336"/>
      <point x="2314" y="1926"/>
      <point x="2900" y="1926" type="curve" smooth="yes"/>
      <point x="3298" y="1926"/>
      <point x="3440" y="1662"/>
    </contour>
  </outline>
</glyph>
<glyph name="o" format="2">
  <advance width="2326"/>
  <unicode hex="006F"/>
  <outline>
    <contour>
      <point x="902" y="942" type="curve" smooth="yes"/>
      <point x="902" y="352"/>
      <point x="1004" y="-32"/>
      <point x="1164" y="-32" type="curve" smooth="yes"/>
      <point x="1324" y="-32"/>
      <point x="1426" y="352"/>
      <point x="1426" y="942" type="curve" smooth="yes"/>
      <point x="1426" y="1532"/>
      <point x="1324" y="1916"/>
      <point x="1164" y="1916" type="curve" smooth="yes"/>
      <point x="1004" y="1916"/>
      <point x="902" y="1532"/>
    </contour>
    <contour>
      <point x="102" y="942" type="curve" smooth="yes"/>
      <point x="102" y="1474"/>
      <point x="504" y="1926"/>
      <point x="1164" y="1926" type="curve" smooth="yes"/>
      <point x="1824" y="1926"/>
      <point x="2224" y="1474"/>
      <point x="2224" y="942" type="curve" smooth="yes"/>
      <point x="2224" y="410"/>
      <point x="1824" y="-40"/>
      <point x="1164" y="-40" type="curve" smooth="yes"/>
      <point x="504" y="-40"/>
      <point x="102" y="410"/>
    </contour>
  </outline>
</glyph>
<glyph name="r" format="2">
  <advance width="1098"/>
  <unicode hex="0072"/>
  <outline>
    <contour>
      <point x="1060" y="748" type="curve"/>
      <point x="1032" y="860"/>
      <point x="920" y="936"/>
      <point x="810" y="936" type="curve" smooth="yes"/>
      <point x="540" y="936"/>
      <point x="540" y="662"/>
      <point x="540" y="446" type="curve"/>
      <point x="536" y="446" type="line"/>
      <point x="536" y="690"/>
      <point x="548" y="940"/>
      <point x="810" y="940" type="curve" smooth="yes"/>
      <point x="942" y="940"/>
      <point x="1074" y="836"/>
      <point x="1074" y="678" type="curve" smooth="yes"/>
      <point x="1074" y="560"/>
      <point x="994" y="456"/>
      <point x="858" y="456" type="curve" smooth="yes"/>
      <point x="732" y="456"/>
      <point x="640" y="542"/>
      <point x="640" y="666" type="curve" smooth="yes"/>
      <point x="640" y="884"/>
      <point x="948" y="968"/>
    </contour>
    <contour>
      <point x="20" y="4" type="line"/>
      <point x="680" y="4" type="line"/>
      <point x="680" y="0" type="line"/>
      <point x="20" y="0" type="line"/>
    </contour>
    <contour>
      <point x="160" y="916" type="line"/>
      <point x="20" y="916" type="line"/>
      <point x="20" y="920" type="line"/>
      <point x="540" y="920" type="line"/>
      <point x="540" y="0" type="line"/>
      <point x="160" y="0" type="line"/>
    </contour>
  </outline>
</glyph>
<glyph name="s" format="2">
  <advance width="1884"/>
  <unicode hex="0073"/>
  <outline>
    <contour>
      <point x="1548" y="1500" type="curve"/>
      <point x="1476" y="1612"/>
      <point x="1398" y="1690"/>
      <point x="1318" y="1758" type="curve"/>
      <point x="1638" y="1926" type="line"/>
      <point x="1646" y="1926" type="line"/>
      <point x="1646" y="1352" type="line"/>
      <point x="1638" y="1352" type="line"/>
      <point x="1607.5" y="1400.88"/>
      <point x="1583.04" y="1455.27"/>
    </contour>
    <contour>
      <point x="1646" y="1352" type="curve"/>
      <point x="1638" y="1352" type="line"/>
      <point x="1474" y="1618"/>
      <point x="1274" y="1912"/>
      <point x="868" y="1912" type="curve" smooth="yes"/>
      <point x="630" y="1912"/>
      <point x="532" y="1794"/>
      <point x="532" y="1684" type="curve" smooth="yes"/>
      <point x="532" y="1274"/>
      <point x="1802" y="1434"/>
      <point x="1802" y="622" type="curve" smooth="yes"/>
      <point x="1802" y="134"/>
      <point x="1376" y="-40"/>
      <point x="1020" y="-40" type="curve" smooth="yes"/>
      <point x="594" y="-40"/>
      <point x="328" y="214"/>
      <point x="144" y="656" type="curve"/>
      <point x="152" y="656" type="line"/>
      <point x="344" y="206"/>
      <point x="606" y="-32"/>
      <point x="1020" y="-32" type="curve" smooth="yes"/>
      <point x="1306" y="-32"/>
      <point x="1422" y="100"/>
      <point x="1422" y="226" type="curve" smooth="yes"/>
      <point x="1422" y="624"/>
      <point x="172" y="446"/>
      <point x="172" y="1290" type="curve" smooth="yes"/>
      <point x="172" y="1676"/>
      <point x="478" y="1922"/>
      <point x="868" y="1922" type="curve" smooth="yes"/>
      <point x="1270" y="1922"/>
      <point x="1482" y="1622"/>
    </contour>
    <contour>
      <point x="152" y="-40" type="line"/>
      <point x="144" y="-40" type="line"/>
      <point x="144" y="656" type="line"/>
      <point x="152" y="656" type="line"/>
      <point x="179" y="584"/>
      <point x="208.296" y="524"/>
      <point x="242" y="458" type="curve"/>
      <point x="324" y="312"/>
      <point x="398" y="234"/>
      <point x="472" y="164" type="curve"/>
    </contour>
  </outline>
</glyph>
<glyph name="t" format="2">
  <advance width="799"/>
  <unicode hex="0074"/>
  <outline>
    <contour>
      <point x="0" y="920" type="line"/>
      <point x="740" y="920" type="line"/>
      <point x="740" y="916" type="line"/>
      <point x="0" y="916" type="line"/>
    </contour>
    <contour>
      <point x="800" y="204" type="line"/>
      <point x="752" y="76"/>
      <point x="630" y="-14"/>
      <point x="428" y="-14" type="curve" smooth="yes"/>
      <point x="204" y="-14"/>
      <point x="146" y="72"/>
      <point x="146" y="242" type="curve" smooth="yes"/>
      <point x="146" y="1120" type="line"/>
      <point x="266" y="1120"/>
      <point x="426" y="1130"/>
      <point x="526" y="1180" type="curve"/>
      <point x="526" y="186" type="line" smooth="yes"/>
      <point x="526" y="86"/>
      <point x="548" y="36"/>
      <point x="602" y="36" type="curve" smooth="yes"/>
      <point x="658" y="36"/>
      <point x="746" y="80"/>
      <point x="796" y="204" type="curve"/>
    </contour>
  </outline>
</glyph>
<glyph name="u" format="2">
  <advance width="1309"/>
  <unicode hex="0075"/>
  <outline>
    <contour>
      <point x="540" y="920" type="line"/>
      <point x="540" y="264" type="line" smooth="yes"/>
      <point x="540" y="96"/>
      <point x="556" y="76"/>
      <point x="612" y="76" type="curve" smooth="yes"/>
      <point x="724" y="76"/>
      <point x="770" y="292"/>
      <point x="770" y="474" type="curve"/>
      <point x="774" y="474" type="line"/>
      <point x="774" y="268"/>
      <point x="730" y="-20"/>
      <point x="444" y="-20" type="curve" smooth="yes"/>
      <point x="230" y="-20"/>
      <point x="160" y="108"/>
      <point x="160" y="282" type="curve" smooth="yes"/>
      <point x="160" y="916" type="line"/>
      <point x="20" y="916" type="line"/>
      <point x="20" y="920" type="line"/>
    </contour>
    <contour>
      <point x="1150" y="4" type="line"/>
      <point x="1290" y="4" type="line"/>
      <point x="1290" y="0" type="line"/>
      <point x="770" y="0" type="line"/>
      <point x="770" y="916" type="line"/>
      <point x="650" y="916" type="line"/>
      <point x="650" y="920" type="line"/>
      <point x="1150" y="920" type="line"/>
    </contour>
  </outline>
</glyph>
<glyph name="w" format="2">
  <advance width="3624"/>
  <unicode hex="0077"/>
  <outline>
    <contour>
      <point x="1458" y="1876" type="line"/>
      <point x="-20" y="1876" type="line"/>
      <point x="-20" y="1884" type="line"/>
      <point x="1458" y="1884" type="line"/>
    </contour>
    <contour>
      <point x="3646" y="1876" type="line"/>
      <point x="2768" y="1876" type="line"/>
      <point x="2768" y="1884" type="line"/>
      <point x="3646" y="1884" type="line"/>
    </contour>
    <contour>
      <point x="1414" y="606" type="line"/>
      <point x="1926" y="1926" type="line"/>
      <point x="2478" y="1926" type="line"/>
      <point x="2830" y="712" type="line"/>
      <point x="3220" y="1884" type="line"/>
      <point x="3232" y="1884" type="line"/>
      <point x="2588" y="-40" type="line"/>
      <point x="2290" y="-40" type="line"/>
      <point x="1728" y="1392" type="line"/>
      <point x="1172" y="-40" type="line"/>
      <point x="872" y="-40" type="line"/>
      <point x="246" y="1884" type="line"/>
      <point x="1082" y="1884" type="line"/>
    </contour>
  </outline>
</glyph>
<glyph name="y" format="2">
  <advance width="1275"/>
  <unicode hex="0079"/>
  <outline>
    <contour>
      <point x="812" y="916" type="line"/>
      <point x="-30" y="916" type="line"/>
      <point x="-30" y="920" type="line"/>
      <point x="812" y="920" type="line"/>
    </contour>
    <contour>
      <point x="1306" y="916" type="line"/>
      <point x="916" y="916" type="line"/>
      <point x="916" y="920" type="line"/>
      <point x="1306" y="920" type="line"/>
    </contour>
    <contour>
      <point x="872" y="370" type="line"/>
      <point x="656" y="-60" type="line"/>
      <point x="118" y="920" type="line"/>
      <point x="578" y="920" type="line"/>
    </contour>
    <contour>
      <point x="498" y="-372" type="curve"/>
      <point x="1146" y="920" type="line"/>
      <point x="1150" y="920" type="line"/>
      <point x="498" y="-378" type="line" smooth="yes"/>
      <point x="467" y="-441"/>
      <point x="398" y="-502"/>
      <point x="302" y="-502" type="curve" smooth="yes"/>
      <point x="192" y="-502"/>
      <point x="104" y="-428"/>
      <point x="104" y="-312" type="curve" smooth="yes"/>
      <point x="104" y="-206"/>
      <point x="190" y="-108"/>
      <point x="314" y="-108" type="curve" smooth="yes"/>
      <point x="426" y="-108"/>
      <point x="534" y="-218"/>
    </contour>
  </outline>
</glyph>
<glyph name="z" format="2">
  <advance width="1000"/>
  <unicode hex="007A"/>
  <outline>
    <contour>
      <point x="422" y="916" type="line" smooth="yes"/>
      <point x="274" y="916"/>
      <point x="130" y="778"/>
      <point x="70" y="576" type="curve"/>
      <point x="66" y="576" type="line"/>
      <point x="66" y="920" type="line"/>
      <point x="948" y="920" type="line"/>
      <point x="948" y="916" type="line"/>
      <point x="426" y="4" type="line"/>
      <point x="578" y="4" type="line" smooth="yes"/>
      <point x="772" y="4"/>
      <point x="916" y="120"/>
      <point x="976" y="368" type="curve"/>
      <point x="980" y="368" type="line"/>
      <point x="980" y="0" type="line"/>
      <point x="10" y="0" type="line"/>
      <point x="10" y="4" type="line"/>
      <point x="530" y="916" type="line"/>
    </contour>
  </outline>
</glyph>
<glyph name="cent" format="2">
  <advance width="2210"/>
  <unicode hex="00A2"/>
  <outline>
    <contour>
      <point x="1236" y="2274" type="line"/>
      <point x="1236" y="-348" type="line"/>
      <point x="1228" y="-348" type="line"/>
      <point x="1228" y="2274" type="line"/>
    </contour>
    <component base="c"/>
  </outline>
</glyph>
<glyph name="sterling" format="2">
  <advance width="1373"/>
  <unicode hex="00A3"/>
  <outline>
    <contour>
      <point x="1324" y="554" type="line"/>
      <point x="1324" y="64"/>
      <point x="1202" y="-60"/>
      <point x="924" y="-60" type="curve" smooth="yes"/>
      <point x="650" y="-60"/>
      <point x="500" y="60"/>
      <point x="374" y="60" type="curve" smooth="yes"/>
      <point x="292" y="60"/>
      <point x="170" y="20"/>
      <point x="150" y="-40" type="curve"/>
      <point x="146" y="-40" type="line"/>
      <point x="166" y="108"/>
      <point x="418" y="434"/>
      <point x="644" y="434" type="curve" smooth="yes"/>
      <point x="804" y="434"/>
      <point x="904" y="366"/>
      <point x="1016" y="366" type="curve" smooth="yes"/>
      <point x="1182" y="366"/>
      <point x="1320" y="390"/>
      <point x="1320" y="554" type="curve"/>
    </contour>
    <contour>
      <point x="930" y="792" type="line"/>
      <point x="930" y="788" type="line"/>
      <point x="30" y="788" type="line"/>
      <point x="30" y="792" type="line"/>
    </contour>
    <contour>
      <point x="156" y="1100" type="curve" smooth="yes"/>
      <point x="156" y="1380"/>
      <point x="386" y="1520"/>
      <point x="768" y="1520" type="curve" smooth="yes"/>
      <point x="1092" y="1520"/>
      <point x="1304" y="1306"/>
      <point x="1304" y="1142" type="curve" smooth="yes"/>
      <point x="1304" y="1000"/>
      <point x="1214" y="888"/>
      <point x="1084" y="888" type="curve" smooth="yes"/>
      <point x="954" y="888"/>
      <point x="832" y="980"/>
      <point x="832" y="1120" type="curve" smooth="yes"/>
      <point x="832" y="1250"/>
      <point x="948" y="1350"/>
      <point x="1066" y="1350" type="curve" smooth="yes"/>
      <point x="1192" y="1350"/>
      <point x="1252" y="1276"/>
      <point x="1280" y="1234" type="curve"/>
      <point x="1212" y="1382"/>
      <point x="1042" y="1498"/>
      <point x="848" y="1498" type="curve" smooth="yes"/>
      <point x="710" y="1498"/>
      <point x="618" y="1408"/>
      <point x="618" y="1220" type="curve" smooth="yes"/>
      <point x="618" y="1022"/>
      <point x="730" y="970"/>
      <point x="730" y="780" type="curve" smooth="yes"/>
      <point x="730" y="400"/>
      <point x="122" y="410"/>
      <point x="148" y="-40" type="curve"/>
      <point x="144" y="-40" type="line"/>
      <point x="106" y="238"/>
      <point x="318" y="394"/>
      <point x="318" y="522" type="curve" smooth="yes"/>
      <point x="318" y="750"/>
      <point x="156" y="870"/>
    </contour>
  </outline>
</glyph>
<glyph name="section" format="2">
  <advance width="1011"/>
  <unicode hex="00A7"/>
  <outline>
    <contour>
      <point x="330" y="1318" type="curve" smooth="yes"/>
      <point x="330" y="1106"/>
      <point x="916" y="1086"/>
      <point x="916" y="780" type="curve" smooth="yes"/>
      <point x="916" y="616"/>
      <point x="798" y="582"/>
      <point x="710" y="530" type="curve"/>
      <point x="706" y="530" type="line"/>
      <point x="762" y="564"/>
      <point x="804" y="568"/>
      <point x="804" y="636" type="curve" smooth="yes"/>
      <point x="804" y="818"/>
      <point x="144" y="812"/>
      <point x="144" y="1176" type="curve" smooth="yes"/>
      <point x="144" y="1384"/>
      <point x="314" y="1520"/>
      <point x="544" y="1520" type="curve" smooth="yes"/>
      <point x="700" y="1520"/>
      <point x="932" y="1470"/>
      <point x="932" y="1258" type="curve" smooth="yes"/>
      <point x="932" y="1156"/>
      <point x="862" y="1074"/>
      <point x="752" y="1074" type="curve" smooth="yes"/>
      <point x="652" y="1074"/>
      <point x="584" y="1154"/>
      <point x="584" y="1246" type="curve" smooth="yes"/>
      <point x="584" y="1330"/>
      <point x="660" y="1410"/>
      <point x="758" y="1410" type="curve" smooth="yes"/>
      <point x="836" y="1410"/>
      <point x="888" y="1374"/>
      <point x="916" y="1332" type="curve"/>
      <point x="870" y="1474"/>
      <point x="688" y="1516"/>
      <point x="544" y="1516" type="curve" smooth="yes"/>
      <point x="440" y="1516"/>
      <point x="330" y="1416"/>
    </contour>
    <contour>
      <point x="928" y="324" type="curve" smooth="yes"/>
      <point x="928" y="116"/>
      <point x="758" y="-20"/>
      <point x="488" y="-20" type="curve" smooth="yes"/>
      <point x="312" y="-20"/>
      <point x="60" y="50"/>
      <point x="60" y="242" type="curve" smooth="yes"/>
      <point x="60" y="344"/>
      <point x="130" y="426"/>
      <point x="240" y="426" type="curve" smooth="yes"/>
      <point x="340" y="426"/>
      <point x="408" y="346"/>
      <point x="408" y="254" type="curve" smooth="yes"/>
      <point x="408" y="170"/>
      <point x="334" y="98"/>
      <point x="236" y="98" type="curve" smooth="yes"/>
      <point x="138" y="98"/>
      <point x="88" y="154"/>
      <point x="72" y="196" type="curve"/>
      <point x="98" y="54"/>
      <point x="304" y="-16"/>
      <point x="488" y="-16" type="curve" smooth="yes"/>
      <point x="654" y="-16"/>
      <point x="742" y="104"/>
      <point x="742" y="182" type="curve" smooth="yes"/>
      <point x="742" y="394"/>
      <point x="116" y="384"/>
      <point x="116" y="690" type="curve" smooth="yes"/>
      <point x="116" y="854"/>
      <point x="234" y="928"/>
      <point x="322" y="980" type="curve"/>
      <point x="326" y="980" type="line"/>
      <point x="278" y="956"/>
      <point x="234" y="920"/>
      <point x="234" y="874" type="curve" smooth="yes"/>
      <point x="234" y="692"/>
      <point x="928" y="688"/>
    </contour>
  </outline>
</glyph>
<glyph name="registered" format="2">
  <advance width="1739"/>
  <unicode hex="00AE"/>
  <outline>
    <contour>
      <point x="100" y="750" type="curve" smooth="yes"/>
      <point x="100" y="1176"/>
      <point x="444" y="1520"/>
      <point x="870" y="1520" type="curve" smooth="yes"/>
      <point x="1296" y="1520"/>
      <point x="1640" y="1176"/>
      <point x="1640" y="750" type="curve" smooth="yes"/>
      <point x="1640" y="324"/>
      <point x="1296" y="-20"/>
      <point x="870" y="-20" type="curve" smooth="yes"/>
      <point x="444" y="-20"/>
      <point x="100" y="324"/>
    </contour>
    <contour>
      <point x="104" y="750" type="curve" smooth="yes"/>
      <point x="104" y="328"/>
      <point x="448" y="-16"/>
      <point x="870" y="-16" type="curve" smooth="yes"/>
      <point x="1292" y="-16"/>
      <point x="1636" y="328"/>
      <point x="1636" y="750" type="curve" smooth="yes"/>
      <point x="1636" y="1172"/>
      <point x="1292" y="1516"/>
      <point x="870" y="1516" type="curve" smooth="yes"/>
      <point x="448" y="1516"/>
      <point x="104" y="1172"/>
    </contour>
    <component base="R" xScale="0.6" yScale="0.6" xOffset="416" yOffset="296"/>
  </outline>
</glyph>
<glyph name="mu" format="2">
  <advance width="1309"/>
  <unicode hex="00B5"/>
  <outline>
    <contour>
      <point x="490" y="-246" type="curve" smooth="yes"/>
      <point x="556" y="-246"/>
      <point x="608" y="-304"/>
      <point x="608" y="-380" type="curve" smooth="yes"/>
      <point x="608" y="-458"/>
      <point x="566" y="-520"/>
      <point x="420" y="-520" type="curve" smooth="yes"/>
      <point x="280" y="-520"/>
      <point x="160" y="-422"/>
      <point x="160" y="-242" type="curve" smooth="yes"/>
      <point x="160" y="642" type="line"/>
      <point x="164" y="642" type="line"/>
      <point x="164" y="-242" type="line" smooth="yes"/>
      <point x="164" y="-418"/>
      <point x="286" y="-536"/>
      <point x="464" y="-512" type="curve"/>
      <point x="464" y="-512" type="line"/>
      <point x="416" y="-496"/>
      <point x="370" y="-448"/>
      <point x="370" y="-372" type="curve" smooth="yes"/>
      <point x="370" y="-306"/>
      <point x="424" y="-246"/>
    </contour>
    <component base="u"/>
  </outline>
</glyph>
<glyph name="Lslash" format="2">
  <advance width="1319"/>
  <unicode hex="0141"/>
  <outline>
    <contour>
      <point x="30" y="720" type="line"/>
      <point x="920" y="1160" type="line"/>
      <point x="920" y="1156" type="line"/>
      <point x="30" y="716" type="line"/>
    </contour>
    <component base="L"/>
  </outline>
</glyph>
<glyph name="lslash" format="2">
  <advance width="1596"/>
  <unicode hex="0142"/>
  <outline>
    <contour>
      <point x="40" y="1474" type="line"/>
      <point x="1618" y="2376" type="line"/>
      <point x="1618" y="2368" type="line"/>
      <point x="40" y="1466" type="line"/>
    </contour>
    <component base="l"/>
  </outline>
</glyph>
<glyph name="uni0237" format="2">
  <advance width="1502"/>
  <unicode hex="0237"/>
  <outline>
    <contour>
      <point x="1208" y="1884" type="line"/>
      <point x="1208" y="-50" type="line" smooth="yes"/>
      <point x="1208" y="-586"/>
      <point x="688" y="-1064"/>
      <point x="74" y="-1064" type="curve" smooth="yes"/>
      <point x="-340" y="-1064"/>
      <point x="-676" y="-840"/>
      <point x="-676" y="-532" type="curve" smooth="yes"/>
      <point x="-676" y="-286"/>
      <point x="-472" y="-118"/>
      <point x="-238" y="-118" type="curve" smooth="yes"/>
      <point x="-12" y="-118"/>
      <point x="196" y="-258"/>
      <point x="196" y="-504" type="curve" smooth="yes"/>
      <point x="196" y="-730"/>
      <point x="36" y="-898"/>
      <point x="-246" y="-898" type="curve" smooth="yes"/>
      <point x="-504" y="-898"/>
      <point x="-644" y="-750"/>
      <point x="-668" y="-586" type="curve"/>
      <point x="-652" y="-828"/>
      <point x="-352" y="-1044"/>
      <point x="-8" y="-1044" type="curve" smooth="yes"/>
      <point x="484" y="-1044"/>
      <point x="410" y="-426"/>
      <point x="410" y="94" type="curve" smooth="yes"/>
      <point x="430" y="1876" type="line"/>
      <point x="62" y="1876" type="line"/>
      <point x="62" y="1884" type="line"/>
    </contour>
  </outline>
</glyph>
<glyph name="ring" format="2">
  <advance width="639"/>
  <unicode hex="02DA"/>
  <outline>
    <contour>
      <point x="100" y="1360" type="curve" smooth="yes"/>
      <point x="100" y="1462"/>
      <point x="178" y="1540"/>
      <point x="320" y="1540" type="curve" smooth="yes"/>
      <point x="462" y="1540"/>
      <point x="540" y="1462"/>
      <point x="540" y="1360" type="curve" smooth="yes"/>
      <point x="540" y="1258"/>
      <point x="462" y="1180"/>
      <point x="320" y="1180" type="curve" smooth="yes"/>
      <point x="178" y="1180"/>
      <point x="100" y="1258"/>
    </contour>
    <contour>
      <point x="270" y="1360" type="curve" smooth="yes"/>
      <point x="270" y="1236"/>
      <point x="286" y="1184"/>
      <point x="320" y="1184" type="curve" smooth="yes"/>
      <point x="354" y="1184"/>
      <point x="370" y="1236"/>
      <point x="370" y="1360" type="curve" smooth="yes"/>
      <point x="370" y="1484"/>
      <point x="354" y="1536"/>
      <point x="320" y="1536" type="curve" smooth="yes"/>
      <point x="286" y="1536"/>
      <point x="270" y="1484"/>
    </contour>
  </outline>
</glyph>
<glyph name="ogonek" format="2">
  <advance width="1099"/>
  <unicode hex="02DB"/>
  <outline>
    <contour>
      <point x="826" y="-266" type="line"/>
      <point x="796" y="-322"/>
      <point x="758" y="-412"/>
      <point x="556" y="-412" type="curve" smooth="yes"/>
      <point x="394" y="-412"/>
      <point x="280" y="-360"/>
      <point x="280" y="-240" type="curve" smooth="yes"/>
      <point x="280" y="-80"/>
      <point x="516" y="36"/>
      <point x="698" y="86" type="curve"/>
      <point x="700" y="82" type="line"/>
      <point x="678" y="68"/>
      <point x="626" y="-24"/>
      <point x="626" y="-170" type="curve" smooth="yes"/>
      <point x="626" y="-304"/>
      <point x="676" y="-360"/>
      <point x="724" y="-360" type="curve" smooth="yes"/>
      <point x="768" y="-360"/>
      <point x="794" y="-322"/>
      <point x="824" y="-264" type="curve"/>
    </contour>
  </outline>
</glyph>
<glyph name="uni1E9E" format="2">
  <advance width="1961"/>
  <unicode hex="1E9E"/>
  <outline>
    <contour>
      <point x="30" y="4" type="line"/>
      <point x="830" y="4" type="line"/>
      <point x="830" y="0" type="line"/>
      <point x="30" y="0" type="line"/>
    </contour>
    <contour>
      <point x="1410" y="782" type="line"/>
      <point x="1270" y="806"/>
      <point x="1126" y="827"/>
      <point x="986" y="830" type="curve"/>
      <point x="1498" y="1470" type="line"/>
      <point x="1442" y="1490"/>
      <point x="1314" y="1516"/>
      <point x="1186" y="1516" type="curve" smooth="yes"/>
      <point x="758" y="1516"/>
      <point x="650" y="1266"/>
      <point x="650" y="862" type="curve" smooth="yes"/>
      <point x="650" y="0" type="line"/>
      <point x="210" y="0" type="line"/>
      <point x="210" y="882" type="line" smooth="yes"/>
      <point x="210" y="1328"/>
      <point x="640" y="1520"/>
      <point x="1186" y="1520" type="curve" smooth="yes"/>
      <point x="1492" y="1520"/>
      <point x="1742" y="1388"/>
      <point x="1822" y="1302" type="curve"/>
    </contour>
    <contour>
      <point x="776" y="328" type="curve"/>
      <point x="810" y="134"/>
      <point x="992" y="-2"/>
      <point x="1202" y="-2" type="curve" smooth="yes"/>
      <point x="1390" y="-2"/>
      <point x="1440" y="172"/>
      <point x="1440" y="420" type="curve" smooth="yes"/>
      <point x="1440" y="628"/>
      <point x="1324" y="826"/>
      <point x="986" y="826" type="curve"/>
      <point x="986" y="830" type="line"/>
      <point x="1628" y="830"/>
      <point x="1882" y="690"/>
      <point x="1882" y="430" type="curve" smooth="yes"/>
      <point x="1882" y="150"/>
      <point x="1604" y="-20"/>
      <point x="1282" y="-20" type="curve" smooth="yes"/>
      <point x="938" y="-20"/>
      <point x="770" y="188"/>
      <point x="770" y="372" type="curve" smooth="yes"/>
      <point x="770" y="514"/>
      <point x="870" y="612"/>
      <point x="1000" y="612" type="curve" smooth="yes"/>
      <point x="1120" y="612"/>
      <point x="1208" y="524"/>
      <point x="1208" y="392" type="curve" smooth="yes"/>
      <point x="1208" y="268"/>
      <point x="1102" y="180"/>
      <point x="984" y="180" type="curve" smooth="yes"/>
      <point x="882" y="180"/>
      <point x="808" y="256"/>
    </contour>
  </outline>
</glyph>
<glyph name="perthousand" format="2">
  <advance width="3099"/>
  <unicode hex="2030"/>
  <outline>
    <contour>
      <point x="2470" y="420" type="curve" smooth="yes"/>
      <point x="2470" y="76"/>
      <point x="2502" y="-16"/>
      <point x="2550" y="-16" type="curve" smooth="yes"/>
      <point x="2598" y="-16"/>
      <point x="2630" y="76"/>
      <point x="2630" y="420" type="curve" smooth="yes"/>
      <point x="2630" y="764"/>
      <point x="2598" y="856"/>
      <point x="2550" y="856" type="curve" smooth="yes"/>
      <point x="2502" y="856"/>
      <point x="2470" y="764"/>
    </contour>
    <contour>
      <point x="2070" y="420" type="curve" smooth="yes"/>
      <point x="2070" y="706"/>
      <point x="2324" y="860"/>
      <point x="2550" y="860" type="curve" smooth="yes"/>
      <point x="2776" y="860"/>
      <point x="3030" y="706"/>
      <point x="3030" y="420" type="curve" smooth="yes"/>
      <point x="3030" y="134"/>
      <point x="2736" y="-20"/>
      <point x="2550" y="-20" type="curve" smooth="yes"/>
      <point x="2324" y="-20"/>
      <point x="2070" y="134"/>
    </contour>
    <contour>
      <point x="1450" y="420" type="curve" smooth="yes"/>
      <point x="1450" y="76"/>
      <point x="1482" y="-16"/>
      <point x="1530" y="-16" type="curve" smooth="yes"/>
      <point x="1578" y="-16"/>
      <point x="1610" y="76"/>
      <point x="1610" y="420" type="curve" smooth="yes"/>
      <point x="1610" y="764"/>
      <point x="1578" y="856"/>
      <point x="1530" y="856" type="curve" smooth="yes"/>
      <point x="1482" y="856"/>
      <point x="1450" y="764"/>
    </contour>
    <contour>
      <point x="1050" y="420" type="curve" smooth="yes"/>
      <point x="1050" y="706"/>
      <point x="1304" y="860"/>
      <point x="1530" y="860" type="curve" smooth="yes"/>
      <point x="1756" y="860"/>
      <point x="2010" y="706"/>
      <point x="2010" y="420" type="curve" smooth="yes"/>
      <point x="2010" y="134"/>
      <point x="1716" y="-20"/>
      <point x="1530" y="-20" type="curve" smooth="yes"/>
      <point x="1304" y="-20"/>
      <point x="1050" y="134"/>
    </contour>
    <contour>
      <point x="1566" y="1500" type="line"/>
      <point x="1570" y="1500" type="line"/>
      <point x="514" y="0" type="line"/>
      <point x="510" y="0" type="line"/>
    </contour>
    <contour>
      <point x="470" y="1080" type="curve" smooth="yes"/>
      <point x="470" y="736"/>
      <point x="502" y="644"/>
      <point x="550" y="644" type="curve" smooth="yes"/>
      <point x="598" y="644"/>
      <point x="630" y="736"/>
      <point x="630" y="1080" type="curve" smooth="yes"/>
      <point x="630" y="1424"/>
      <point x="598" y="1516"/>
      <point x="550" y="1516" type="curve" smooth="yes"/>
      <point x="502" y="1516"/>
      <point x="470" y="1424"/>
    </contour>
    <contour>
      <point x="70" y="1080" type="curve" smooth="yes"/>
      <point x="70" y="1366"/>
      <point x="324" y="1520"/>
      <point x="550" y="1520" type="curve" smooth="yes"/>
      <point x="776" y="1520"/>
      <point x="1030" y="1366"/>
      <point x="1030" y="1080" type="curve" smooth="yes"/>
      <point x="1030" y="794"/>
      <point x="736" y="640"/>
      <point x="550" y="640" type="curve" smooth="yes"/>
      <point x="324" y="640"/>
      <point x="70" y="794"/>
    </contour>
  </outline>
</glyph>
<glyph name="Euro" format="2">
  <advance width="1479"/>
  <unicode hex="20AC"/>
  <outline>
    <contour>
      <point x="1370" y="1314" type="curve"/>
      <point x="1318" y="1408"/>
      <point x="1166" y="1508"/>
      <point x="978" y="1508" type="curve" smooth="yes"/>
      <point x="740" y="1508"/>
      <point x="680" y="1178"/>
      <point x="680" y="750" type="curve" smooth="yes"/>
      <point x="680" y="282"/>
      <point x="752" y="2"/>
      <point x="950" y="2" type="curve" smooth="yes"/>
      <point x="1140" y="2"/>
      <point x="1312" y="164"/>
      <point x="1362" y="356" type="curve"/>
      <point x="1366" y="356" type="line"/>
      <point x="1314" y="162"/>
      <point x="1148" y="-20"/>
      <point x="866" y="-20" type="curve" smooth="yes"/>
      <point x="464" y="-20"/>
      <point x="190" y="290"/>
      <point x="190" y="750" type="curve" smooth="yes"/>
      <point x="190" y="1170"/>
      <point x="456" y="1520"/>
      <point x="918" y="1520" type="curve" smooth="yes"/>
      <point x="1222" y="1520"/>
      <point x="1410" y="1356"/>
      <point x="1410" y="1192" type="curve" smooth="yes"/>
      <point x="1410" y="1050"/>
      <point x="1316" y="968"/>
      <point x="1196" y="968" type="curve" smooth="yes"/>
      <point x="1086" y="968"/>
      <point x="982" y="1040"/>
      <point x="982" y="1180" type="curve" smooth="yes"/>
      <point x="982" y="1310"/>
      <point x="1078" y="1390"/>
      <point x="1196" y="1390" type="curve" smooth="yes"/>
      <point x="1274" y="1390"/>
      <point x="1346" y="1346"/>
    </contour>
    <component base="equal" xOffset="-60" yOffset="-140"/>
  </outline>
</glyph>
<glyph name="uni2116" format="2">
  <advance width="2411"/>
  <unicode hex="2116"/>
  <outline>
    <contour>
      <point x="1850" y="1140" type="curve" smooth="yes"/>
      <point x="1850" y="912"/>
      <point x="1880" y="764"/>
      <point x="1958" y="764" type="curve" smooth="yes"/>
      <point x="2036" y="764"/>
      <point x="2066" y="912"/>
      <point x="2066" y="1140" type="curve" smooth="yes"/>
      <point x="2066" y="1368"/>
      <point x="2036" y="1516"/>
      <point x="1958" y="1516" type="curve" smooth="yes"/>
      <point x="1880" y="1516"/>
      <point x="1850" y="1368"/>
    </contour>
    <contour>
      <point x="1560" y="1140" type="curve" smooth="yes"/>
      <point x="1560" y="1400"/>
      <point x="1736" y="1520"/>
      <point x="1958" y="1520" type="curve" smooth="yes"/>
      <point x="2180" y="1520"/>
      <point x="2356" y="1400"/>
      <point x="2356" y="1140" type="curve" smooth="yes"/>
      <point x="2356" y="880"/>
      <point x="2180" y="760"/>
      <point x="1958" y="760" type="curve" smooth="yes"/>
      <point x="1736" y="760"/>
      <point x="1560" y="880"/>
    </contour>
    <component base="hyphen" xOffset="1598" yOffset="80"/>
    <component base="N"/>
  </outline>
</glyph>
<glyph name="uniFB00" format="2">
  <advance width="1519"/>
  <unicode hex="FB00"/>
  <outline>
    <contour>
      <point x="10" y="4" type="line"/>
      <point x="1471" y="4" type="line"/>
      <point x="1471" y="0" type="line"/>
      <point x="10" y="0" type="line"/>
    </contour>
    <contour>
      <point x="10" y="920" type="line"/>
      <point x="1510" y="920" type="line"/>
      <point x="1510" y="916" type="line"/>
      <point x="10" y="916" type="line"/>
    </contour>
    <contour>
      <point x="1094" y="1228" type="curve"/>
      <point x="1068" y="1328"/>
      <point x="919" y="1414"/>
      <point x="805" y="1414" type="curve" smooth="yes"/>
      <point x="645" y="1414"/>
      <point x="550" y="1234"/>
      <point x="550" y="980" type="curve" smooth="yes"/>
      <point x="550" y="0" type="line"/>
      <point x="190" y="0" type="line"/>
      <point x="190" y="924" type="line" smooth="yes"/>
      <point x="190" y="1226"/>
      <point x="444" y="1420"/>
      <point x="784" y="1420" type="curve" smooth="yes"/>
      <point x="966" y="1420"/>
      <point x="1110" y="1296"/>
      <point x="1110" y="1162" type="curve" smooth="yes"/>
      <point x="1110" y="1040"/>
      <point x="1036" y="958"/>
      <point x="916" y="958" type="curve" smooth="yes"/>
      <point x="806" y="958"/>
      <point x="704" y="1026"/>
      <point x="704" y="1146" type="curve" smooth="yes"/>
      <point x="704" y="1266"/>
      <point x="783" y="1344"/>
      <point x="891" y="1344" type="curve" smooth="yes"/>
      <point x="999" y="1344"/>
      <point x="1094" y="1228"/>
    </contour>
    <contour>
      <point x="1738" y="1322" type="curve"/>
      <point x="1718" y="1410"/>
      <point x="1614" y="1514"/>
      <point x="1464" y="1514" type="curve" smooth="yes"/>
      <point x="1304" y="1514"/>
      <point x="1230" y="1334"/>
      <point x="1230" y="1080" type="curve" smooth="yes"/>
      <point x="1230" y="0" type="line"/>
      <point x="870" y="0" type="line"/>
      <point x="870" y="1024" type="line" smooth="yes"/>
      <point x="870" y="1326"/>
      <point x="1124" y="1520"/>
      <point x="1444" y="1520" type="curve" smooth="yes"/>
      <point x="1626" y="1520"/>
      <point x="1750" y="1396"/>
      <point x="1750" y="1262" type="curve" smooth="yes"/>
      <point x="1750" y="1140"/>
      <point x="1677" y="1058"/>
      <point x="1557" y="1058" type="curve" smooth="yes"/>
      <point x="1447" y="1058"/>
      <point x="1344" y="1126"/>
      <point x="1344" y="1246" type="curve" smooth="yes"/>
      <point x="1344" y="1366"/>
      <point x="1440" y="1444"/>
      <point x="1548" y="1444" type="curve" smooth="yes"/>
      <point x="1634" y="1444"/>
      <point x="1716" y="1382"/>
    </contour>
  </outline>
</glyph>
<glyph name="uniFB01" format="2">
  <advance width="1349"/>
  <unicode hex="FB01"/>
  <outline>
    <contour>
      <point x="190" y="1024" type="line" smooth="yes"/>
      <point x="190" y="1346"/>
      <point x="444" y="1520"/>
      <point x="844" y="1520" type="curve" smooth="yes"/>
      <point x="1066" y="1520"/>
      <point x="1210" y="1396"/>
      <point x="1210" y="1262" type="curve" smooth="yes"/>
      <point x="1210" y="1140"/>
      <point x="1137" y="1058"/>
      <point x="1017" y="1058" type="curve" smooth="yes"/>
      <point x="907" y="1058"/>
      <point x="805" y="1126"/>
      <point x="805" y="1246" type="curve" smooth="yes"/>
      <point x="805" y="1366"/>
      <point x="898" y="1440"/>
      <point x="1006" y="1440" type="curve" smooth="yes"/>
      <point x="1092" y="1440"/>
      <point x="1168" y="1396"/>
      <point x="1202" y="1304" type="curve"/>
      <point x="1166" y="1438"/>
      <point x="1018" y="1516"/>
      <point x="844" y="1516" type="curve" smooth="yes"/>
      <point x="624" y="1516"/>
      <point x="550" y="1334"/>
      <point x="550" y="1080" type="curve" smooth="yes"/>
      <point x="550" y="0" type="line"/>
      <point x="190" y="0" type="line"/>
    </contour>
    <contour>
      <point x="10" y="4" type="line"/>
      <point x="1351" y="4" type="line"/>
      <point x="1351" y="0" type="line"/>
      <point x="10" y="0" type="line"/>
    </contour>
    <contour>
      <point x="830" y="916" type="line"/>
      <point x="10" y="916" type="line"/>
      <point x="10" y="920" type="line"/>
      <point x="1210" y="920" type="line"/>
      <point x="1210" y="0" type="line"/>
      <point x="830" y="0" type="line"/>
    </contour>
  </outline>
</glyph>
<glyph name="uniFB02" format="2">
  <advance width="1540"/>
  <unicode hex="FB02"/>
  <outline>
    <contour>
      <point x="10" y="4" type="line"/>
      <point x="1521" y="4" type="line"/>
      <point x="1521" y="0" type="line"/>
      <point x="10" y="0" type="line"/>
    </contour>
    <contour>
      <point x="10" y="920" type="line"/>
      <point x="830" y="920" type="line"/>
      <point x="830" y="916" type="line"/>
      <point x="10" y="916" type="line"/>
    </contour>
    <contour>
      <point x="960" y="1460" type="line"/>
      <point x="1340" y="1540" type="line"/>
      <point x="1340" y="0" type="line"/>
      <point x="960" y="0" type="line"/>
    </contour>
    <contour>
      <point x="1064" y="1306" type="curve"/>
      <point x="1046" y="1402"/>
      <point x="938" y="1512"/>
      <point x="784" y="1512" type="curve" smooth="yes"/>
      <point x="624" y="1512"/>
      <point x="550" y="1334"/>
      <point x="550" y="1080" type="curve" smooth="yes"/>
      <point x="550" y="0" type="line"/>
      <point x="190" y="0" type="line"/>
      <point x="190" y="1024" type="line" smooth="yes"/>
      <point x="190" y="1326"/>
      <point x="445" y="1520"/>
      <point x="765" y="1520" type="curve" smooth="yes"/>
      <point x="947" y="1520"/>
      <point x="1070" y="1396"/>
      <point x="1070" y="1262" type="curve" smooth="yes"/>
      <point x="1070" y="1140"/>
      <point x="996" y="1058"/>
      <point x="876" y="1058" type="curve" smooth="yes"/>
      <point x="766" y="1058"/>
      <point x="664" y="1126"/>
      <point x="664" y="1246" type="curve" smooth="yes"/>
      <point x="664" y="1366"/>
      <point x="743" y="1444"/>
      <point x="851" y="1444" type="curve" smooth="yes"/>
      <point x="999" y="1444"/>
      <point x="1064" y="1306"/>
    </contour>
  </outline>
</glyph>
<glyph name="uniFB03" format="2">
  <advance width="4074"/>
  <unicode hex="FB03"/>
  <outline>
    <contour>
      <point x="1700" y="2098" type="line" smooth="yes"/>
      <point x="1700" y="2758"/>
      <point x="2220" y="3112"/>
      <point x="3040" y="3112" type="curve" smooth="yes"/>
      <point x="3494" y="3112"/>
      <point x="3790" y="2858"/>
      <point x="3790" y="2584" type="curve" smooth="yes"/>
      <point x="3790" y="2334"/>
      <point x="3638" y="2166"/>
      <point x="3392" y="2166" type="curve" smooth="yes"/>
      <point x="3166" y="2166"/>
      <point x="2958" y="2306"/>
      <point x="2958" y="2552" type="curve" smooth="yes"/>
      <point x="2958" y="2798"/>
      <point x="3138" y="2950"/>
      <point x="3360" y="2950" type="curve" smooth="yes"/>
      <point x="3594" y="2950"/>
      <point x="3726" y="2834"/>
      <point x="3772" y="2670" type="curve"/>
      <point x="3694" y="2940"/>
      <point x="3404" y="3100"/>
      <point x="3040" y="3100" type="curve" smooth="yes"/>
      <point x="2590" y="3100"/>
      <point x="2438" y="2732"/>
      <point x="2438" y="2212" type="curve" smooth="yes"/>
      <point x="2438" y="0" type="line"/>
      <point x="1700" y="0" type="line"/>
    </contour>
    <contour>
      <point x="20" y="8" type="line"/>
      <point x="4076" y="8" type="line"/>
      <point x="4076" y="0" type="line"/>
      <point x="20" y="0" type="line"/>
    </contour>
    <contour>
      <point x="390" y="1892" type="line" smooth="yes"/>
      <point x="390" y="2506"/>
      <point x="910" y="2908"/>
      <point x="1606" y="2908" type="curve" smooth="yes"/>
      <point x="1978" y="2908"/>
      <point x="2274" y="2654"/>
      <point x="2274" y="2380" type="curve" smooth="yes"/>
      <point x="2274" y="2130"/>
      <point x="2122" y="1962"/>
      <point x="1876" y="1962" type="curve" smooth="yes"/>
      <point x="1650" y="1962"/>
      <point x="1442" y="2102"/>
      <point x="1442" y="2348" type="curve" smooth="yes"/>
      <point x="1442" y="2594"/>
      <point x="1602" y="2752"/>
      <point x="1824" y="2752" type="curve" smooth="yes"/>
      <point x="2046" y="2752"/>
      <point x="2200" y="2592"/>
      <point x="2200" y="2592" type="curve"/>
      <point x="2106" y="2756"/>
      <point x="1890" y="2892"/>
      <point x="1648" y="2892" type="curve" smooth="yes"/>
      <point x="1320" y="2892"/>
      <point x="1126" y="2528"/>
      <point x="1126" y="2008" type="curve" smooth="yes"/>
      <point x="1126" y="0" type="line"/>
      <point x="390" y="0" type="line"/>
    </contour>
    <contour>
      <point x="3012" y="1876" type="line"/>
      <point x="20" y="1876" type="line"/>
      <point x="20" y="1884" type="line"/>
      <point x="3790" y="1884" type="line"/>
      <point x="3790" y="0" type="line"/>
      <point x="3012" y="0" type="line"/>
    </contour>
  </outline>
</glyph>
<glyph name="uniFB04" format="2">
  <advance width="2219"/>
  <unicode hex="FB04"/>
  <outline>
    <contour>
      <point x="10" y="4" type="line"/>
      <point x="2200" y="4" type="line"/>
      <point x="2200" y="0" type="line"/>
      <point x="10" y="0" type="line"/>
    </contour>
    <contour>
      <point x="10" y="920" type="line"/>
      <point x="1510" y="920" type="line"/>
      <point x="1510" y="916" type="line"/>
      <point x="10" y="916" type="line"/>
    </contour>
    <contour>
      <point x="1641" y="1460" type="line"/>
      <point x="2021" y="1540" type="line"/>
      <point x="2021" y="0" type="line"/>
      <point x="1641" y="0" type="line"/>
    </contour>
    <contour>
      <point x="1076" y="1268" type="curve"/>
      <point x="1030" y="1348"/>
      <point x="919" y="1414"/>
      <point x="805" y="1414" type="curve" smooth="yes"/>
      <point x="645" y="1414"/>
      <point x="550" y="1234"/>
      <point x="550" y="980" type="curve" smooth="yes"/>
      <point x="550" y="0" type="line"/>
      <point x="190" y="0" type="line"/>
      <point x="190" y="924" type="line" smooth="yes"/>
      <point x="190" y="1224"/>
      <point x="444" y="1420"/>
      <point x="784" y="1420" type="curve" smooth="yes"/>
      <point x="966" y="1420"/>
      <point x="1110" y="1296"/>
      <point x="1110" y="1162" type="curve" smooth="yes"/>
      <point x="1110" y="1040"/>
      <point x="1036" y="958"/>
      <point x="916" y="958" type="curve" smooth="yes"/>
      <point x="806" y="958"/>
      <point x="704" y="1026"/>
      <point x="704" y="1146" type="curve" smooth="yes"/>
      <point x="704" y="1266"/>
      <point x="783" y="1344"/>
      <point x="891" y="1344" type="curve" smooth="yes"/>
      <point x="979" y="1344"/>
      <point x="1076" y="1268"/>
    </contour>
    <contour>
      <point x="1736" y="1326" type="curve"/>
      <point x="1704" y="1446"/>
      <point x="1568" y="1516"/>
      <point x="1464" y="1516" type="curve" smooth="yes"/>
      <point x="1304" y="1516"/>
      <point x="1230" y="1334"/>
      <point x="1230" y="1080" type="curve" smooth="yes"/>
      <point x="1230" y="0" type="line"/>
      <point x="870" y="0" type="line"/>
      <point x="870" y="1024" type="line" smooth="yes"/>
      <point x="870" y="1326"/>
      <point x="1124" y="1520"/>
      <point x="1444" y="1520" type="curve" smooth="yes"/>
      <point x="1626" y="1520"/>
      <point x="1750" y="1396"/>
      <point x="1750" y="1262" type="curve" smooth="yes"/>
      <point x="1750" y="1140"/>
      <point x="1677" y="1058"/>
      <point x="1557" y="1058" type="curve" smooth="yes"/>
      <point x="1447" y="1058"/>
      <point x="1344" y="1126"/>
      <point x="1344" y="1246" type="curve" smooth="yes"/>
      <point x="1344" y="1366"/>
      <point x="1422" y="1444"/>
      <point x="1530" y="1444" type="curve" smooth="yes"/>
      <point x="1678" y="1444"/>
      <point x="1736" y="1326"/>
    </contour>
  </outline>
</glyph>
<glyph name="R.alt" format="2">
  <advance width="1559"/>
  <outline>
    <contour>
      <point x="770" y="768" type="curve" smooth="yes"/>
      <point x="390" y="768" type="line"/>
      <point x="390" y="772" type="line"/>
      <point x="670" y="772" type="line" smooth="yes"/>
      <point x="862" y="772"/>
      <point x="950" y="872"/>
      <point x="950" y="1130" type="curve" smooth="yes"/>
      <point x="950" y="1388"/>
      <point x="862" y="1496"/>
      <point x="670" y="1496" type="curve" smooth="yes"/>
      <point x="30" y="1496" type="line"/>
      <point x="30" y="1500" type="line"/>
      <point x="770" y="1500" type="line" smooth="yes"/>
      <point x="1132" y="1500"/>
      <point x="1390" y="1390"/>
      <point x="1390" y="1130" type="curve" smooth="yes"/>
      <point x="1390" y="870"/>
      <point x="1152" y="768"/>
    </contour>
    <contour>
      <point x="30" y="4" type="line"/>
      <point x="820" y="4" type="line"/>
      <point x="820" y="0" type="line"/>
      <point x="30" y="0" type="line"/>
    </contour>
    <contour>
      <point x="210" y="1500" type="line"/>
      <point x="640" y="1500" type="line"/>
      <point x="640" y="0" type="line"/>
      <point x="210" y="0" type="line"/>
    </contour>
    <contour>
      <point x="1540" y="0" type="line"/>
      <point x="1508" y="0"/>
      <point x="1312" y="0"/>
      <point x="1240" y="0" type="curve" smooth="yes"/>
      <point x="654" y="0"/>
      <point x="1172" y="768"/>
      <point x="660" y="768" type="curve" smooth="yes"/>
      <point x="390" y="768" type="line"/>
      <point x="390" y="772" type="line"/>
      <point x="940" y="772" type="line" smooth="yes"/>
      <point x="1606" y="772"/>
      <point x="1184" y="4"/>
      <point x="1470" y="4" type="curve" smooth="yes"/>
      <point x="1512" y="4"/>
      <point x="1512" y="4"/>
      <point x="1540" y="4" type="curve"/>
    </contour>
  </outline>
</glyph>
<glyph name="fj.lig" format="2">
  <advance width="1353"/>
  <outline>
    <contour>
      <point x="20" y="4" type="line"/>
      <point x="740" y="4" type="line"/>
      <point x="740" y="0" type="line"/>
      <point x="20" y="0" type="line"/>
    </contour>
    <contour>
      <point x="1220" y="-24" type="line" smooth="yes"/>
      <point x="1220" y="-286"/>
      <point x="966" y="-520"/>
      <point x="666" y="-520" type="curve" smooth="yes"/>
      <point x="464" y="-520"/>
      <point x="300" y="-426"/>
      <point x="300" y="-272" type="curve" smooth="yes"/>
      <point x="300" y="-150"/>
      <point x="394" y="-58"/>
      <point x="514" y="-58" type="curve" smooth="yes"/>
      <point x="624" y="-58"/>
      <point x="726" y="-126"/>
      <point x="726" y="-246" type="curve" smooth="yes"/>
      <point x="726" y="-366"/>
      <point x="628" y="-438"/>
      <point x="520" y="-438" type="curve" smooth="yes"/>
      <point x="408" y="-438"/>
      <point x="338" y="-374"/>
      <point x="306" y="-298" type="curve"/>
      <point x="320" y="-424"/>
      <point x="468" y="-512"/>
      <point x="636" y="-512" type="curve" smooth="yes"/>
      <point x="876" y="-512"/>
      <point x="840" y="-214"/>
      <point x="840" y="40" type="curve" smooth="yes"/>
      <point x="840" y="916" type="line"/>
      <point x="20" y="916" type="line"/>
      <point x="20" y="920" type="line"/>
      <point x="1220" y="920" type="line"/>
    </contour>
    <contour>
      <point x="1186" y="1364" type="curve"/>
      <point x="1130" y="1444"/>
      <point x="1028" y="1514"/>
      <point x="854" y="1514" type="curve" smooth="yes"/>
      <point x="634" y="1514"/>
      <point x="560" y="1334"/>
      <point x="560" y="1080" type="curve" smooth="yes"/>
      <point x="560" y="0" type="line"/>
      <point x="200" y="0" type="line"/>
      <point x="200" y="1024" type="line" smooth="yes"/>
      <point x="200" y="1346"/>
      <point x="454" y="1520"/>
      <point x="854" y="1520" type="curve" smooth="yes"/>
      <point x="1076" y="1520"/>
      <point x="1220" y="1396"/>
      <point x="1220" y="1262" type="curve" smooth="yes"/>
      <point x="1220" y="1140"/>
      <point x="1146" y="1058"/>
      <point x="1026" y="1058" type="curve" smooth="yes"/>
      <point x="916" y="1058"/>
      <point x="814" y="1126"/>
      <point x="814" y="1246" type="curve" smooth="yes"/>
      <point x="814" y="1366"/>
      <point x="908" y="1440"/>
      <point x="1016" y="1440" type="curve" smooth="yes"/>
      <point x="1088" y="1440"/>
      <point x="1150" y="1404"/>
    </contour>
  </outline>
</glyph>
